# xmcd CD database file
#
# Track frame offsets:
#	150
#	10714
#	50792
#	79759
#	106507
#	116780
#	138147
#	145823
#	167305
#	175890
#
# Disc length: 2557 seconds
#
# Revision: 0
# Processed by: cddbd v1.5.2PL0 Copyright (c) Steve Scherf et al.
# Submitted via: CDex 1.51
#
DISCID=7509fb0a
DTITLE=Win Mertens - Un Respiro
DYEAR=2001
DGENRE=New Age
TTITLE0=Essence of the (k)not
TTITLE1=Warm by one another
TTITLE2=From lure to lure
TTITLE3=Many a one
TTITLE4=Fitting destiny
TTITLE5=Fernglänzend
TTITLE6=Workable resonance
TTITLE7=Who put such a thing to work
TTITLE8=Gleaming from afar
TTITLE9=Un Respiro
EXTD=YEAR: 2001
EXTT0=
EXTT1=
EXTT2=
EXTT3=
EXTT4=
EXTT5=
EXTT6=
EXTT7=
EXTT8=
EXTT9=
PLAYORDER=
